<svg width="251" height="64" viewBox="0 0 251 64" fill="none" xmlns="http://www.w3.org/2000/svg">
<path d="M84.7754 17.3389H80.8555V28H78.2188V17.3389H74.3516V15.2031H84.7754V17.3389ZM88.5986 19.5273C89.2725 18.7188 90.1191 18.3145 91.1387 18.3145C93.2012 18.3145 94.2471 19.5127 94.2764 21.9092V28H91.7363V21.9795C91.7363 21.4346 91.6191 21.0332 91.3848 20.7754C91.1504 20.5117 90.7607 20.3799 90.2158 20.3799C89.4717 20.3799 88.9326 20.667 88.5986 21.2412V28H86.0586V14.5H88.5986V19.5273ZM101.703 28C101.586 27.7715 101.501 27.4873 101.448 27.1475C100.833 27.833 100.033 28.1758 99.0488 28.1758C98.1172 28.1758 97.3438 27.9062 96.7285 27.3672C96.1191 26.8281 95.8145 26.1484 95.8145 25.3281C95.8145 24.3203 96.1865 23.5469 96.9307 23.0078C97.6807 22.4688 98.7617 22.1963 100.174 22.1904H101.343V21.6455C101.343 21.2061 101.229 20.8545 101 20.5908C100.777 20.3271 100.423 20.1953 99.9365 20.1953C99.5088 20.1953 99.1719 20.2979 98.9258 20.5029C98.6855 20.708 98.5654 20.9893 98.5654 21.3467H96.0254C96.0254 20.7959 96.1953 20.2861 96.5352 19.8174C96.875 19.3486 97.3555 18.9824 97.9766 18.7188C98.5977 18.4492 99.2949 18.3145 100.068 18.3145C101.24 18.3145 102.169 18.6104 102.854 19.2021C103.546 19.7881 103.892 20.6143 103.892 21.6807V25.8027C103.897 26.7051 104.023 27.3877 104.27 27.8506V28H101.703ZM99.6025 26.2334C99.9775 26.2334 100.323 26.1514 100.64 25.9873C100.956 25.8174 101.19 25.5918 101.343 25.3105V23.6758H100.394C99.1221 23.6758 98.4453 24.1152 98.3633 24.9941L98.3545 25.1436C98.3545 25.46 98.4658 25.7207 98.6885 25.9258C98.9111 26.1309 99.2158 26.2334 99.6025 26.2334ZM103.435 16.9609V17.0664H101.413L100.06 15.792L98.7061 17.0664H96.7197V16.9258L99.3213 14.5H100.798L103.435 16.9609ZM108.225 18.4902L108.304 19.5537C108.978 18.7275 109.889 18.3145 111.037 18.3145C112.262 18.3145 113.103 18.7979 113.56 19.7646C114.228 18.7979 115.18 18.3145 116.416 18.3145C117.447 18.3145 118.215 18.6162 118.719 19.2197C119.223 19.8174 119.475 20.7197 119.475 21.9268V28H116.926V21.9355C116.926 21.3965 116.82 21.0039 116.609 20.7578C116.398 20.5059 116.026 20.3799 115.493 20.3799C114.731 20.3799 114.204 20.7432 113.911 21.4697L113.92 28H111.38V21.9443C111.38 21.3936 111.271 20.9951 111.055 20.749C110.838 20.5029 110.469 20.3799 109.947 20.3799C109.227 20.3799 108.705 20.6787 108.383 21.2764V28H105.843V18.4902H108.225ZM136.49 28H133.854L128.721 19.5801V28H126.084V15.2031H128.721L133.862 23.6406V15.2031H136.49V28ZM141.104 19.5273C141.778 18.7188 142.625 18.3145 143.645 18.3145C145.707 18.3145 146.753 19.5127 146.782 21.9092V28H144.242V21.9795C144.242 21.4346 144.125 21.0332 143.891 20.7754C143.656 20.5117 143.267 20.3799 142.722 20.3799C141.978 20.3799 141.438 20.667 141.104 21.2412V28H138.564V14.5H141.104V19.5273ZM154.209 28C154.092 27.7715 154.007 27.4873 153.954 27.1475C153.339 27.833 152.539 28.1758 151.555 28.1758C150.623 28.1758 149.85 27.9062 149.234 27.3672C148.625 26.8281 148.32 26.1484 148.32 25.3281C148.32 24.3203 148.692 23.5469 149.437 23.0078C150.187 22.4688 151.268 22.1963 152.68 22.1904H153.849V21.6455C153.849 21.2061 153.734 20.8545 153.506 20.5908C153.283 20.3271 152.929 20.1953 152.442 20.1953C152.015 20.1953 151.678 20.2979 151.432 20.5029C151.191 20.708 151.071 20.9893 151.071 21.3467H148.531C148.531 20.7959 148.701 20.2861 149.041 19.8174C149.381 19.3486 149.861 18.9824 150.482 18.7188C151.104 18.4492 151.801 18.3145 152.574 18.3145C153.746 18.3145 154.675 18.6104 155.36 19.2021C156.052 19.7881 156.397 20.6143 156.397 21.6807V25.8027C156.403 26.7051 156.529 27.3877 156.775 27.8506V28H154.209ZM152.108 26.2334C152.483 26.2334 152.829 26.1514 153.146 25.9873C153.462 25.8174 153.696 25.5918 153.849 25.3105V23.6758H152.899C151.628 23.6758 150.951 24.1152 150.869 24.9941L150.86 25.1436C150.86 25.46 150.972 25.7207 151.194 25.9258C151.417 26.1309 151.722 26.2334 152.108 26.2334ZM155.94 16.9609V17.0664H153.919L152.565 15.792L151.212 17.0664H149.226V16.9258L151.827 14.5H153.304L155.94 16.9609ZM150.482 29.916C150.482 29.5645 150.614 29.2744 150.878 29.0459C151.142 28.8174 151.481 28.7031 151.897 28.7031C152.319 28.7031 152.662 28.8174 152.926 29.0459C153.189 29.2744 153.321 29.5645 153.321 29.916C153.321 30.2617 153.189 30.5518 152.926 30.7861C152.668 31.0205 152.325 31.1377 151.897 31.1377C151.47 31.1377 151.127 31.0205 150.869 30.7861C150.611 30.5518 150.482 30.2617 150.482 29.916ZM166.909 23.333C166.909 24.7979 166.575 25.9727 165.907 26.8574C165.245 27.7363 164.349 28.1758 163.218 28.1758C162.257 28.1758 161.48 27.8418 160.889 27.1738V31.6562H158.349V18.4902H160.704L160.792 19.4219C161.407 18.6836 162.21 18.3145 163.2 18.3145C164.372 18.3145 165.283 18.748 165.934 19.6152C166.584 20.4824 166.909 21.6777 166.909 23.2012V23.333ZM164.369 23.1484C164.369 22.2637 164.211 21.5811 163.895 21.1006C163.584 20.6201 163.13 20.3799 162.532 20.3799C161.735 20.3799 161.188 20.6846 160.889 21.2939V25.1875C161.199 25.8145 161.753 26.1279 162.55 26.1279C163.763 26.1279 164.369 25.1348 164.369 23.1484ZM182.246 17.3389H178.326V28H175.689V17.3389H171.822V15.2031H182.246V17.3389ZM187.625 28C187.508 27.7715 187.423 27.4873 187.37 27.1475C186.755 27.833 185.955 28.1758 184.971 28.1758C184.039 28.1758 183.266 27.9062 182.65 27.3672C182.041 26.8281 181.736 26.1484 181.736 25.3281C181.736 24.3203 182.108 23.5469 182.853 23.0078C183.603 22.4688 184.684 22.1963 186.096 22.1904H187.265V21.6455C187.265 21.2061 187.15 20.8545 186.922 20.5908C186.699 20.3271 186.345 20.1953 185.858 20.1953C185.431 20.1953 185.094 20.2979 184.848 20.5029C184.607 20.708 184.487 20.9893 184.487 21.3467H181.947C181.947 20.7959 182.117 20.2861 182.457 19.8174C182.797 19.3486 183.277 18.9824 183.898 18.7188C184.52 18.4492 185.217 18.3145 185.99 18.3145C187.162 18.3145 188.091 18.6104 188.776 19.2021C189.468 19.7881 189.813 20.6143 189.813 21.6807V25.8027C189.819 26.7051 189.945 27.3877 190.191 27.8506V28H187.625ZM185.524 26.2334C185.899 26.2334 186.245 26.1514 186.562 25.9873C186.878 25.8174 187.112 25.5918 187.265 25.3105V23.6758H186.315C185.044 23.6758 184.367 24.1152 184.285 24.9941L184.276 25.1436C184.276 25.46 184.388 25.7207 184.61 25.9258C184.833 26.1309 185.138 26.2334 185.524 26.2334ZM194.146 18.4902L194.226 19.5537C194.899 18.7275 195.811 18.3145 196.959 18.3145C198.184 18.3145 199.024 18.7979 199.481 19.7646C200.149 18.7979 201.102 18.3145 202.338 18.3145C203.369 18.3145 204.137 18.6162 204.641 19.2197C205.145 19.8174 205.396 20.7197 205.396 21.9268V28H202.848V21.9355C202.848 21.3965 202.742 21.0039 202.531 20.7578C202.32 20.5059 201.948 20.3799 201.415 20.3799C200.653 20.3799 200.126 20.7432 199.833 21.4697L199.842 28H197.302V21.9443C197.302 21.3936 197.193 20.9951 196.977 20.749C196.76 20.5029 196.391 20.3799 195.869 20.3799C195.148 20.3799 194.627 20.6787 194.305 21.2764V28H191.765V18.4902H194.146ZM221.111 17.3389H217.191V28H214.555V17.3389H210.688V15.2031H221.111V17.3389ZM226.49 28C226.373 27.7715 226.288 27.4873 226.235 27.1475C225.62 27.833 224.82 28.1758 223.836 28.1758C222.904 28.1758 222.131 27.9062 221.516 27.3672C220.906 26.8281 220.602 26.1484 220.602 25.3281C220.602 24.3203 220.974 23.5469 221.718 23.0078C222.468 22.4688 223.549 22.1963 224.961 22.1904H226.13V21.6455C226.13 21.2061 226.016 20.8545 225.787 20.5908C225.564 20.3271 225.21 20.1953 224.724 20.1953C224.296 20.1953 223.959 20.2979 223.713 20.5029C223.473 20.708 223.353 20.9893 223.353 21.3467H220.812C220.812 20.7959 220.982 20.2861 221.322 19.8174C221.662 19.3486 222.143 18.9824 222.764 18.7188C223.385 18.4492 224.082 18.3145 224.855 18.3145C226.027 18.3145 226.956 18.6104 227.642 19.2021C228.333 19.7881 228.679 20.6143 228.679 21.6807V25.8027C228.685 26.7051 228.811 27.3877 229.057 27.8506V28H226.49ZM224.39 26.2334C224.765 26.2334 225.11 26.1514 225.427 25.9873C225.743 25.8174 225.978 25.5918 226.13 25.3105V23.6758H225.181C223.909 23.6758 223.232 24.1152 223.15 24.9941L223.142 25.1436C223.142 25.46 223.253 25.7207 223.476 25.9258C223.698 26.1309 224.003 26.2334 224.39 26.2334ZM222.764 29.916C222.764 29.5645 222.896 29.2744 223.159 29.0459C223.423 28.8174 223.763 28.7031 224.179 28.7031C224.601 28.7031 224.943 28.8174 225.207 29.0459C225.471 29.2744 225.603 29.5645 225.603 29.916C225.603 30.2617 225.471 30.5518 225.207 30.7861C224.949 31.0205 224.606 31.1377 224.179 31.1377C223.751 31.1377 223.408 31.0205 223.15 30.7861C222.893 30.5518 222.764 30.2617 222.764 29.916ZM232.968 18.4902L233.047 19.5889C233.727 18.7393 234.638 18.3145 235.78 18.3145C236.788 18.3145 237.538 18.6104 238.03 19.2021C238.522 19.7939 238.774 20.6787 238.786 21.8564V28H236.246V21.918C236.246 21.3789 236.129 20.9893 235.895 20.749C235.66 20.5029 235.271 20.3799 234.726 20.3799C234.011 20.3799 233.475 20.6846 233.117 21.2939V28H230.577V18.4902H232.968ZM240.351 23.1748C240.351 21.7158 240.696 20.541 241.388 19.6504C242.085 18.7598 243.022 18.3145 244.2 18.3145C245.243 18.3145 246.055 18.6719 246.635 19.3867L246.74 18.4902H249.043V27.6836C249.043 28.5156 248.853 29.2393 248.472 29.8545C248.097 30.4697 247.566 30.9385 246.881 31.2607C246.195 31.583 245.393 31.7441 244.473 31.7441C243.775 31.7441 243.096 31.6035 242.434 31.3223C241.771 31.0469 241.271 30.6895 240.931 30.25L242.056 28.7031C242.688 29.4121 243.456 29.7666 244.358 29.7666C245.032 29.7666 245.557 29.585 245.932 29.2217C246.307 28.8643 246.494 28.3545 246.494 27.6924V27.1826C245.908 27.8447 245.138 28.1758 244.183 28.1758C243.04 28.1758 242.114 27.7305 241.405 26.8398C240.702 25.9434 240.351 24.7568 240.351 23.2803V23.1748ZM242.891 23.3594C242.891 24.2207 243.063 24.8975 243.409 25.3896C243.755 25.876 244.229 26.1191 244.833 26.1191C245.606 26.1191 246.16 25.8291 246.494 25.249V21.25C246.154 20.6699 245.606 20.3799 244.851 20.3799C244.241 20.3799 243.761 20.6289 243.409 21.127C243.063 21.625 242.891 22.3691 242.891 23.3594ZM84.7754 38.3389H80.8555V49H78.2188V38.3389H74.3516V36.2031H84.7754V38.3389ZM90.8838 41.8721C90.5381 41.8252 90.2334 41.8018 89.9697 41.8018C89.0088 41.8018 88.3789 42.127 88.0801 42.7773V49H85.54V39.4902H87.9395L88.0098 40.624C88.5195 39.751 89.2256 39.3145 90.1279 39.3145C90.4092 39.3145 90.6729 39.3525 90.9189 39.4287L90.8838 41.8721ZM94.8564 49H92.3164V39.4902H94.8564V49ZM94.1094 35.6318H96.8779L94.4434 38.3564H92.3779L94.1094 35.6318ZM110.809 38.3389H106.889V49H104.252V38.3389H100.385V36.2031H110.809V38.3389ZM117.269 48.0332C116.642 48.7949 115.774 49.1758 114.667 49.1758C113.647 49.1758 112.868 48.8828 112.329 48.2969C111.796 47.7109 111.523 46.8525 111.512 45.7217V39.4902H114.052V45.6338C114.052 46.624 114.503 47.1191 115.405 47.1191C116.267 47.1191 116.858 46.8203 117.181 46.2227V39.4902H119.729V49H117.339L117.269 48.0332ZM126.022 49.1758C124.628 49.1758 123.491 48.748 122.612 47.8926C121.739 47.0371 121.303 45.8975 121.303 44.4736V44.2275C121.303 43.2725 121.487 42.4199 121.856 41.6699C122.226 40.9141 122.747 40.334 123.421 39.9297C124.101 39.5195 124.874 39.3145 125.741 39.3145C127.042 39.3145 128.064 39.7246 128.809 40.5449C129.559 41.3652 129.934 42.5283 129.934 44.0342V45.0713H123.878C123.96 45.6924 124.206 46.1904 124.616 46.5654C125.032 46.9404 125.557 47.1279 126.189 47.1279C127.168 47.1279 127.933 46.7734 128.483 46.0645L129.731 47.4619C129.351 48.001 128.835 48.4229 128.185 48.7275C127.534 49.0264 126.813 49.1758 126.022 49.1758ZM125.732 41.3711C125.229 41.3711 124.818 41.541 124.502 41.8809C124.191 42.2207 123.992 42.707 123.904 43.3398H127.438V43.1377C127.426 42.5752 127.273 42.1416 126.98 41.8369C126.688 41.5264 126.271 41.3711 125.732 41.3711ZM128.826 37.9609V38.0664H126.805L125.451 36.792L124.098 38.0664H122.111V37.9258L124.713 35.5H126.189L128.826 37.9609ZM124.247 51.0566C124.247 50.7051 124.379 50.415 124.643 50.1865C124.906 49.958 125.246 49.8438 125.662 49.8438C126.084 49.8438 126.427 49.958 126.69 50.1865C126.954 50.415 127.086 50.7051 127.086 51.0566C127.086 51.4023 126.954 51.6924 126.69 51.9268C126.433 52.1611 126.09 52.2783 125.662 52.2783C125.234 52.2783 124.892 52.1611 124.634 51.9268C124.376 51.6924 124.247 51.4023 124.247 51.0566ZM146.439 49H143.803L138.67 40.5801V49H136.033V36.2031H138.67L143.812 44.6406V36.2031H146.439V49ZM151.054 40.5273C151.728 39.7188 152.574 39.3145 153.594 39.3145C155.656 39.3145 156.702 40.5127 156.731 42.9092V49H154.191V42.9795C154.191 42.4346 154.074 42.0332 153.84 41.7754C153.605 41.5117 153.216 41.3799 152.671 41.3799C151.927 41.3799 151.388 41.667 151.054 42.2412V49H148.514V35.5H151.054V40.5273ZM169.405 38.6553C169.405 39.7217 169.194 40.5127 168.772 41.0283C168.356 41.5381 167.7 41.8398 166.804 41.9336V49H164.413L164.343 48.0332C163.716 48.7949 162.849 49.1758 161.741 49.1758C160.722 49.1758 159.942 48.8828 159.403 48.2969C158.87 47.7109 158.598 46.8525 158.586 45.7217V39.4902H161.126V45.6338C161.126 46.624 161.577 47.1191 162.479 47.1191C163.341 47.1191 163.933 46.8203 164.255 46.2227V39.4902H166.804V40.7119C167.202 40.624 167.48 40.4424 167.639 40.167C167.803 39.8916 167.885 39.3877 167.885 38.6553H169.405ZM174.283 49V36.2031H178.766C180.318 36.2031 181.496 36.502 182.299 37.0996C183.102 37.6914 183.503 38.5615 183.503 39.71C183.503 40.3369 183.342 40.8906 183.02 41.3711C182.697 41.8457 182.249 42.1943 181.675 42.417C182.331 42.5811 182.847 42.9121 183.222 43.4102C183.603 43.9082 183.793 44.5176 183.793 45.2383C183.793 46.4688 183.4 47.4004 182.615 48.0332C181.83 48.666 180.711 48.9883 179.258 49H174.283ZM176.92 43.4277V46.8818H179.179C179.8 46.8818 180.283 46.7354 180.629 46.4424C180.98 46.1436 181.156 45.7334 181.156 45.2119C181.156 44.04 180.55 43.4453 179.337 43.4277H176.92ZM176.92 41.5645H178.871C180.201 41.541 180.866 41.0107 180.866 39.9736C180.866 39.3936 180.696 38.9775 180.356 38.7256C180.022 38.4678 179.492 38.3389 178.766 38.3389H176.92V41.5645ZM188.293 49H185.744V39.4902H188.293V49ZM185.595 37.0293C185.595 36.6484 185.721 36.335 185.973 36.0889C186.23 35.8428 186.579 35.7197 187.019 35.7197C187.452 35.7197 187.798 35.8428 188.056 36.0889C188.313 36.335 188.442 36.6484 188.442 37.0293C188.442 37.416 188.311 37.7324 188.047 37.9785C187.789 38.2246 187.446 38.3477 187.019 38.3477C186.591 38.3477 186.245 38.2246 185.981 37.9785C185.724 37.7324 185.595 37.416 185.595 37.0293ZM194.771 49.1758C193.376 49.1758 192.239 48.748 191.36 47.8926C190.487 47.0371 190.051 45.8975 190.051 44.4736V44.2275C190.051 43.2725 190.235 42.4199 190.604 41.6699C190.974 40.9141 191.495 40.334 192.169 39.9297C192.849 39.5195 193.622 39.3145 194.489 39.3145C195.79 39.3145 196.812 39.7246 197.557 40.5449C198.307 41.3652 198.682 42.5283 198.682 44.0342V45.0713H192.626C192.708 45.6924 192.954 46.1904 193.364 46.5654C193.78 46.9404 194.305 47.1279 194.938 47.1279C195.916 47.1279 196.681 46.7734 197.231 46.0645L198.479 47.4619C198.099 48.001 197.583 48.4229 196.933 48.7275C196.282 49.0264 195.562 49.1758 194.771 49.1758ZM194.48 41.3711C193.977 41.3711 193.566 41.541 193.25 41.8809C192.939 42.2207 192.74 42.707 192.652 43.3398H196.186V43.1377C196.174 42.5752 196.021 42.1416 195.729 41.8369C195.436 41.5264 195.02 41.3711 194.48 41.3711ZM197.398 38.2773H195.579L194.182 37.0996L192.775 38.2773H190.956L193.417 36.2559H194.946L197.398 38.2773ZM196.581 37.1611L196.467 36.1592C196.83 36.1416 197.091 36.0977 197.249 36.0273C197.413 35.9512 197.495 35.8369 197.495 35.6846C197.495 35.333 197.141 35.1572 196.432 35.1572L196.484 34.1641C197.334 34.1641 197.973 34.293 198.4 34.5508C198.828 34.8027 199.042 35.1543 199.042 35.6055C199.042 35.8867 198.942 36.127 198.743 36.3262C198.55 36.5195 198.28 36.6367 197.935 36.6777L197.926 37.1611H196.581ZM202.47 39.4902L202.549 40.5889C203.229 39.7393 204.14 39.3145 205.282 39.3145C206.29 39.3145 207.04 39.6104 207.532 40.2021C208.024 40.7939 208.276 41.6787 208.288 42.8564V49H205.748V42.918C205.748 42.3789 205.631 41.9893 205.396 41.749C205.162 41.5029 204.772 41.3799 204.228 41.3799C203.513 41.3799 202.977 41.6846 202.619 42.2939V49H200.079V39.4902H202.47Z" fill="#C18000"/>
<path fill-rule="evenodd" clip-rule="evenodd" d="M31.9284 33.0843C31.9284 33.0843 30.9554 30.5108 27.1362 30.3307C27.1362 20.992 27.1362 22.4135 27.1362 22.4135C27.1362 22.4135 31.1864 22.2813 31.9284 25.5261C31.9284 34.2894 31.9284 33.0843 31.9284 33.0843Z" fill="#D5AC5D"/>
<path fill-rule="evenodd" clip-rule="evenodd" d="M31.928 33.0843C31.9207 32.4068 31.2932 29.5117 28.2451 29.237V20.6475C29.5012 21.2719 31.825 22.8079 31.928 25.525C31.928 34.2894 31.928 33.0843 31.928 33.0843Z" fill="#D5AC5D"/>
<path fill-rule="evenodd" clip-rule="evenodd" d="M32.0835 33.0843C32.0835 33.0843 33.0565 30.5108 36.8757 30.3307C36.8757 20.992 36.8757 22.4135 36.8757 22.4135C36.8757 22.4135 32.8255 22.2813 32.0835 25.5261C32.0835 34.2894 32.0835 33.0843 32.0835 33.0843Z" fill="#D5AC5D"/>
<path fill-rule="evenodd" clip-rule="evenodd" d="M32.0835 33.0843C32.0908 32.4068 32.7183 29.5117 35.7663 29.237V20.6475C34.5103 21.2719 32.1865 22.8079 32.0835 25.525C32.0835 34.2894 32.0835 33.0843 32.0835 33.0843Z" fill="#D5AC5D"/>
<path fill-rule="evenodd" clip-rule="evenodd" d="M31.9961 33.2352C31.9961 33.2352 30.2541 35.3644 32.0076 38.7621C23.9196 43.4315 25.1507 42.7207 25.1507 42.7207C25.1507 42.7207 23.0122 39.2793 25.4504 37.0138C33.0409 32.6316 31.9961 33.2352 31.9961 33.2352Z" fill="#D5AC5D"/>
<path fill-rule="evenodd" clip-rule="evenodd" d="M31.996 33.2352C31.4132 33.5796 29.2195 35.5704 30.5058 38.3479L23.0672 42.6427C22.9808 41.243 23.1483 38.4624 25.4503 37.0148C33.0408 32.6316 31.996 33.2352 31.996 33.2352Z" fill="#D5AC5D"/>
<path fill-rule="evenodd" clip-rule="evenodd" d="M31.9185 33.1008C31.9185 33.1008 29.2035 33.5442 27.1378 30.3275C19.0498 34.9969 20.2809 34.2861 20.2809 34.2861C20.2809 34.2861 22.1916 37.8597 25.3728 36.8805C32.9623 32.4983 31.9185 33.1008 31.9185 33.1008Z" fill="#D5AC5D"/>
<path fill-rule="evenodd" clip-rule="evenodd" d="M31.9188 33.1009C31.3287 33.4328 28.5075 34.3372 26.7457 31.8354L19.3071 36.1302C20.4768 36.9055 22.9681 38.1501 25.372 36.8805C32.9626 32.4983 31.9188 33.1009 31.9188 33.1009Z" fill="#D5AC5D"/>
<path fill-rule="evenodd" clip-rule="evenodd" d="M32.0209 33.2352C32.0209 33.2352 33.7629 35.3644 32.0094 38.7621C40.0974 43.4315 38.8663 42.7207 38.8663 42.7207C38.8663 42.7207 41.0048 39.2793 38.5666 37.0138C30.976 32.6316 32.0209 33.2352 32.0209 33.2352Z" fill="#D5AC5D"/>
<path fill-rule="evenodd" clip-rule="evenodd" d="M32.0209 33.2352C32.6026 33.5796 34.7973 35.5704 33.5111 38.3479L40.9486 42.6427C41.036 41.243 40.8674 38.4624 38.5655 37.0148C30.9761 32.6316 32.0209 33.2352 32.0209 33.2352Z" fill="#D5AC5D"/>
<path fill-rule="evenodd" clip-rule="evenodd" d="M32.0975 33.1008C32.0975 33.1008 34.8126 33.5442 36.8783 30.3275C44.9662 34.9969 43.7351 34.2861 43.7351 34.2861C43.7351 34.2861 41.8245 37.8597 38.6442 36.8805C31.0527 32.4983 32.0975 33.1008 32.0975 33.1008Z" fill="#D5AC5D"/>
<path fill-rule="evenodd" clip-rule="evenodd" d="M32.0975 33.1009C32.6876 33.4328 35.5088 34.3372 37.2696 31.8354L44.7081 36.1302C43.5384 36.9055 41.0471 38.1501 38.6432 36.8805C31.0527 32.4983 32.0975 33.1009 32.0975 33.1009Z" fill="#D5AC5D"/>
<path fill-rule="evenodd" clip-rule="evenodd" d="M28.2466 22.504C29.5026 22.7122 31.4383 23.3803 31.9294 25.525C31.9294 34.2894 31.9294 33.0843 31.9294 33.0843C31.9222 32.4069 31.2946 29.5118 28.2466 29.237V22.504Z" fill="#4D1A18"/>
<path fill-rule="evenodd" clip-rule="evenodd" d="M35.7663 22.504C34.5103 22.7122 32.5747 23.3803 32.0835 25.525C32.0835 34.2894 32.0835 33.0843 32.0835 33.0843C32.0908 32.4069 32.7183 29.5118 35.7663 29.237V22.504Z" fill="#4D1A18"/>
<path fill-rule="evenodd" clip-rule="evenodd" d="M24.6748 41.7133C24.2263 40.5218 23.8381 38.5102 25.4501 37.0138C33.0406 32.6316 31.9958 33.2352 31.9958 33.2352C31.413 33.5796 29.2193 35.5704 30.5055 38.3479L24.6748 41.7133Z" fill="#4D1A18"/>
<path fill-rule="evenodd" clip-rule="evenodd" d="M20.915 35.2009C21.7226 36.1854 23.27 37.5267 25.3721 36.8795C32.9626 32.4973 31.9178 33.1009 31.9178 33.1009C31.3278 33.4328 28.5066 34.3372 26.7448 31.8354L20.915 35.2009Z" fill="#4D1A18"/>
<path fill-rule="evenodd" clip-rule="evenodd" d="M39.3404 41.7133C39.7889 40.5218 40.177 38.5102 38.5651 37.0138C30.9746 32.6316 32.0194 33.2352 32.0194 33.2352C32.6011 33.5796 34.7958 35.5704 33.5096 38.3479L39.3404 41.7133Z" fill="#4D1A18"/>
<path fill-rule="evenodd" clip-rule="evenodd" d="M43.1003 35.2009C42.2928 36.1854 40.7453 37.5267 38.6432 36.8795C31.0527 32.4973 32.0975 33.1009 32.0975 33.1009C32.6876 33.4328 35.5088 34.3372 37.2696 31.8354L43.1003 35.2009Z" fill="#4D1A18"/>
<path fill-rule="evenodd" clip-rule="evenodd" d="M61.3237 30.235C60.1842 29.1257 59.3371 26.5199 57.6481 24.9714C56.288 23.7247 56.2401 24.2169 54.6313 23.324L55.0538 22.582C56.3463 19.7879 54.5501 17.6556 54.6146 14.5534C54.6406 13.287 55.1995 12.7448 54.8384 11.7853C53.728 11.2952 53.0266 12.2068 51.6644 11.9924C50.7153 11.8425 49.2116 11.4669 48.1626 11.2837C44.6181 10.6624 45.1166 10.3908 41.5284 11.4273C41.4598 9.71024 40.9498 8.72891 40.0122 7.98589C39.5356 7.60917 39.1745 7.28657 38.651 6.9265C36.2898 5.30413 34.3271 5.54452 33.1512 2.28728C32.787 1.27785 32.9171 1.128 31.6506 1C30.867 2.15512 31.2697 2.79096 29.9616 4.18127C27.1227 7.19915 24.1725 6.0919 22.6427 11.4065C17.7038 8.82569 17.0107 11.1037 13.0344 11.4752C11.1737 11.649 11.1602 10.9736 9.43684 10.9809C9.32653 12.1579 9.58669 12.9685 9.45453 14.1778C9.09134 17.4964 7.04958 19.3862 9.37232 23.1315C8.89362 23.3157 8.69589 23.2293 8.03092 23.5415C2.7288 26.037 5.39287 29.5097 0.0564062 30.7324C-0.27244 32.5546 0.897252 32.1508 1.99098 33.1936C3.47495 34.6068 4.64464 37.5081 6.04119 38.7954C7.01524 39.6935 8.1995 39.8038 9.35254 40.2981C7.4596 45.8645 10.2173 46.722 9.23391 50.5381C9.04451 51.2749 8.37329 52.7016 10.7148 52.0616C12.6847 51.5236 12.1321 51.8254 15.4518 52.5736C17.7069 53.0814 20.2284 53.4696 22.4783 52.5455C25.4847 57.5063 28.9865 57.0192 30.3373 59.3066C31.278 60.8988 30.2259 61.7167 31.8785 62.3994C33.0138 61.4784 32.2989 60.6584 33.4124 59.3284C35.0556 57.3637 35.6415 57.6124 37.4834 56.6946C40.4753 55.2044 40.3712 54.4155 41.2194 53.095C41.8729 53.7287 43.616 53.5997 44.4828 53.609C47.3394 53.6413 49.1606 52.5902 51.015 52.405C52.4636 52.2604 53.7041 52.9139 54.6417 52.3374C55.1027 51.8795 54.0839 51.0355 54.2972 49.4194C54.4356 48.3714 54.9632 48.0072 55.3795 46.5867C56.0351 44.3472 55.98 42.0037 54.5022 40.6852C55.6803 40.0671 57.5992 40.4989 59.7263 36.8286C63.0012 31.1747 63.4654 33.8939 64.02 31.9167C63.2385 30.6689 62.8368 31.7065 61.3237 30.235ZM41.3942 14.6044C41.6949 14.1923 41.8802 13.9821 42.7658 13.5242C44.5037 12.6261 47.3467 13.4649 49.0471 13.801L52.2159 14.3713C52.3138 17.8419 54.5772 22.2053 50.8412 23.2855C50.7476 23.3126 49.4977 23.5977 48.583 23.8048C48.6871 24.0233 48.7859 24.244 48.8817 24.4667C47.2583 20.6849 44.4027 17.5588 40.8177 15.5941C40.8281 15.5993 40.8374 15.6045 40.8479 15.6097C41.107 15.1237 41.3515 14.6637 41.3942 14.6044ZM47.8827 31.6992C47.8827 40.4656 40.776 47.5712 32.0096 47.5712C23.2432 47.5712 16.1365 40.4646 16.1365 31.6992C16.1365 22.9327 23.2432 15.8261 32.0096 15.8261C40.776 15.8261 47.8827 22.9327 47.8827 31.6992ZM40.5544 15.4557C40.4035 15.3766 40.2526 15.2985 40.0996 15.2226C40.2536 15.2985 40.4045 15.3766 40.5544 15.4557ZM38.3295 14.4629C38.5792 14.5545 38.8248 14.6523 39.0694 14.7543C38.8259 14.6523 38.5792 14.5534 38.3295 14.4629ZM39.3306 14.8677C39.4908 14.9374 39.649 15.0092 39.8062 15.0831C39.6501 15.0082 39.4908 14.9374 39.3306 14.8677ZM25.4025 10.7634C25.9156 9.44904 29.6754 7.57899 32.045 5.72455C35.681 8.83402 40.6449 8.76845 38.702 13.6793C38.6812 13.7324 38.5178 14.0685 38.3264 14.4619C36.3564 13.7396 34.2293 13.3452 32.0096 13.3452C29.5006 13.3452 27.1092 13.85 24.9301 14.7616C25.158 14.6658 25.3879 14.5742 25.621 14.4879C25.4129 14.03 25.2475 13.6595 25.235 13.6012C25.0424 12.6813 25.0216 11.7395 25.4025 10.7634ZM24.6158 14.901C24.4742 14.9634 24.3338 15.0259 24.1943 15.0914C24.3338 15.0248 24.4742 14.9624 24.6158 14.901ZM11.0863 17.9928C11.3381 15.8927 11.8574 15.8168 11.9053 13.7646L13.3518 13.7365C18.4333 12.5346 19.9245 11.8373 22.4741 14.6627C22.5189 14.7126 22.7572 15.1612 23.034 15.6867C23.0652 15.669 23.0964 15.6534 23.1276 15.6367C19.8246 17.4672 17.1449 20.2853 15.4903 23.6945C15.4934 23.6872 15.4965 23.6799 15.5007 23.6726C14.586 23.401 13.6338 23.1169 13.5537 23.0847C9.92386 21.6101 11.1196 19.8545 11.0863 17.9928ZM23.8478 15.26C23.7219 15.3225 23.5959 15.387 23.4711 15.4526C23.5959 15.387 23.7219 15.3225 23.8478 15.26ZM4.99117 32.9053L4.07436 31.9333C6.79879 26.9913 7.09745 25.7196 12.4017 25.6332C12.5151 25.6312 13.5474 25.8944 14.5142 26.139C14.587 25.9111 14.664 25.6842 14.7452 25.4605C14.0417 27.4075 13.6556 29.5076 13.6556 31.6981C13.6556 33.5453 13.9314 35.3279 14.4392 37.0096C14.4112 36.916 14.381 36.8244 14.3539 36.7307C13.3611 37.1564 12.1977 37.6538 12.0582 37.6965C7.52516 39.1024 6.48763 35.0563 4.99117 32.9053ZM15.3873 23.9162C15.3092 24.0827 15.2333 24.2502 15.1594 24.4198C15.2322 24.2502 15.3092 24.0827 15.3873 23.9162ZM15.0376 24.7091C14.971 24.8694 14.9075 25.0317 14.8461 25.1941C14.9075 25.0317 14.971 24.8694 15.0376 24.7091ZM23.0381 47.796C23.0153 47.9323 22.5688 48.8189 22.5178 48.949C22.0079 50.2425 20.1358 51.1656 18.0503 50.7275C16.8515 50.4756 16.3218 50.1832 15.1063 49.9574C14.5475 49.8533 13.9304 49.7784 13.4298 49.6858C13.1332 49.6306 12.6316 49.4683 12.0187 49.4329C12.0718 45.8146 9.5024 42.8466 12.5734 40.5187C12.7576 40.3792 14.151 39.7184 15.2551 39.1981C15.2239 39.1294 15.1958 39.0587 15.1656 38.9889C16.8952 42.9809 20.0015 46.236 23.8863 48.1571C23.8561 48.1425 23.8238 48.129 23.7937 48.1134C23.5377 48.0124 23.2858 47.9063 23.0381 47.796ZM14.5111 37.2448C14.5901 37.4956 14.6734 37.7454 14.7639 37.992C14.6734 37.7454 14.5901 37.4956 14.5111 37.2448ZM14.8076 38.1075C14.8857 38.3177 14.9679 38.5258 15.0543 38.7319C14.9689 38.5258 14.8867 38.3177 14.8076 38.1075ZM38.4825 52.7952C38.1817 53.3426 37.1098 53.9566 36.6197 54.2678C35.1794 55.1815 34.8953 55.0264 31.8275 57.038C31.1126 56.4625 30.5381 56.0473 29.5807 55.5072L26.9 53.838C25.6335 52.8899 24.2214 52.0023 25.0019 49.9897C25.0518 49.8606 25.3994 49.1967 25.5607 48.8866C25.5014 48.8647 25.4452 48.8387 25.3869 48.8158C27.4422 49.6119 29.6744 50.0531 32.0106 50.0531C34.169 50.0531 36.2388 49.6775 38.1619 48.9938C38.0995 49.0156 38.0371 49.0406 37.9746 49.0624C38.1775 49.5776 38.3607 50.0438 38.395 50.1156C38.8061 50.9616 38.9664 51.9159 38.4825 52.7952ZM24.4815 48.437C24.5648 48.4745 24.648 48.514 24.7323 48.5504C24.648 48.514 24.5648 48.4745 24.4815 48.437ZM38.4627 48.8834C38.6271 48.821 38.7905 48.7565 38.9539 48.6899C38.7905 48.7565 38.6271 48.822 38.4627 48.8834ZM39.214 48.5837C39.4451 48.4849 39.673 48.3818 39.8977 48.2747C39.673 48.3818 39.4451 48.4849 39.214 48.5837ZM52.4095 47.0321C52.0827 47.8698 51.7508 48.8449 51.707 49.9043C50.5155 49.9855 49.4093 50.2821 48.4155 50.4673L45.3518 51.2187C43.2476 51.6047 41.4379 50.9814 40.904 49.2539C40.876 49.1634 40.673 48.5879 40.467 47.9906C40.3692 48.0416 40.2703 48.0884 40.1714 48.1373C44.0624 46.2017 47.1698 42.9278 48.8879 38.9151C48.787 39.1523 48.6819 39.3875 48.5705 39.6185C49.2428 39.9828 50.8287 40.6987 51.1659 40.9547C54.4877 43.4877 53.2389 44.9071 52.4095 47.0321ZM58.1258 34.4559C56.4316 37.4477 55.6397 38.7985 51.988 38.017C51.8559 37.9889 50.0909 37.1949 49.5883 36.9909C49.582 37.0107 49.5748 37.0315 49.5685 37.0512C50.0836 35.3581 50.3636 33.5609 50.3636 31.6992C50.3636 29.5138 49.9796 27.419 49.2792 25.4751C49.3593 25.6967 49.4363 25.9205 49.5082 26.1473C50.4406 25.9631 51.654 25.7165 51.7716 25.7165C57.4525 25.7519 56.0278 27.8696 58.976 31.3037C59.3444 31.7325 59.4068 31.796 59.6992 32.3163C59.1789 33.1394 58.7106 33.4246 58.1258 34.4559ZM48.9837 24.7123C49.0534 24.8808 49.12 25.0505 49.1845 25.2222C49.12 25.0505 49.0534 24.8808 48.9837 24.7123Z" fill="#D5AC5D"/>
<path d="M45.6373 26.0672C45.7237 26.2743 45.7653 26.3794 45.8464 26.5927C45.7257 26.6375 45.6654 26.6593 45.5447 26.7041C45.4468 26.6291 45.3969 26.5917 45.2991 26.5209C45.273 26.4543 45.2595 26.421 45.2325 26.3554C44.811 26.5282 44.5997 26.6146 44.1783 26.7873C44.0222 26.8518 43.8671 26.831 43.7142 26.7322C43.5612 26.6333 43.4332 26.4699 43.3229 26.2431C43.2146 26.0183 43.1689 25.8226 43.1855 25.6457C43.2032 25.4667 43.2833 25.3325 43.4332 25.2461C43.9223 24.9651 44.1658 24.8246 44.6549 24.5426C44.7954 24.7934 44.8641 24.9214 44.9952 25.1826C44.4915 25.4397 44.2397 25.5687 43.736 25.8258C43.6756 25.857 43.6361 25.8882 43.6163 25.9173C43.5966 25.9475 43.6049 26.0027 43.6444 26.0838C43.6704 26.139 43.7027 26.1775 43.7391 26.1962C43.7735 26.2129 43.8286 26.2035 43.9015 26.1692C44.4124 25.9267 44.6674 25.8049 45.1784 25.5625C45.2845 25.7945 45.3355 25.9121 45.4343 26.1525C45.5166 26.1182 45.5571 26.1015 45.6373 26.0672ZM41.9617 23.9765C42.5705 23.4968 42.8754 23.2564 43.4842 22.7766C43.6528 22.9952 43.735 23.1065 43.8952 23.3355C43.659 23.5041 43.5414 23.5884 43.3052 23.7569C43.3926 23.8818 43.4353 23.9453 43.5196 24.0733C43.7599 23.911 43.8807 23.8298 44.121 23.6685C44.2761 23.9037 44.351 24.0233 44.4957 24.27C43.8328 24.6706 43.5019 24.8715 42.839 25.2721C42.713 25.0588 42.6475 24.9547 42.5143 24.7508C42.788 24.5666 42.9243 24.4739 43.198 24.2898C43.1158 24.1649 43.0742 24.1035 42.9888 23.9817C42.7203 24.1732 42.5861 24.2689 42.3176 24.4615C42.1792 24.2627 42.1084 24.1659 41.9617 23.9765ZM42.0678 21.7277C42.174 21.6215 42.226 21.5685 42.3322 21.4623C42.7661 21.8994 42.9732 22.1314 43.3655 22.6247C43.249 22.7194 43.1907 22.7662 43.0742 22.8599C42.9659 22.7246 42.9118 22.658 42.8005 22.5259C42.3259 22.9348 42.0887 23.1388 41.6152 23.5467C41.4622 23.3667 41.3841 23.2782 41.2239 23.1076C41.6786 22.6778 41.9065 22.4624 42.3613 22.0315C42.2458 21.9087 42.1865 21.8473 42.0678 21.7277ZM39.4048 20.8691C39.6015 20.5767 39.7004 20.431 39.8971 20.1396C40.0001 19.9877 40.1426 19.9138 40.3279 19.9221C40.5027 19.9305 40.6952 20.0106 40.8992 20.1657C41.1 20.3186 41.2332 20.4695 41.2988 20.61C41.3789 20.7807 41.3602 20.9326 41.2499 21.0606C41.1937 21.1262 41.1656 21.1584 41.1094 21.224C40.9273 21.0669 40.8347 20.9909 40.6474 20.8431C40.6952 20.7828 40.7192 20.7515 40.767 20.6912C40.8305 20.6111 40.8087 20.5288 40.7004 20.4466C40.6463 20.405 40.5839 20.3863 40.5308 20.4008C40.4933 20.4112 40.459 20.4383 40.4361 20.4695C40.2072 20.7776 40.0927 20.9316 39.8648 21.2396C39.8294 21.2864 39.8117 21.3322 39.8148 21.3718C39.8169 21.4082 39.844 21.4457 39.8939 21.4831C39.9928 21.558 40.0719 21.558 40.1312 21.4821C40.1926 21.403 40.2238 21.3645 40.2852 21.2854C40.2186 21.2334 40.1843 21.2073 40.1166 21.1553C40.204 21.0408 40.2467 20.9836 40.3341 20.8691C40.5943 21.0658 40.7212 21.1688 40.971 21.3843C40.6921 21.7089 40.5537 21.8702 40.2748 22.1949C40.1229 22.0638 40.0448 22.0003 39.8887 21.8754C39.9283 21.8255 39.948 21.8016 39.9865 21.7516C39.8252 21.7839 39.6702 21.7433 39.5162 21.6299C39.3684 21.5216 39.2872 21.3957 39.2768 21.2521C39.2675 21.1376 39.3112 21.0075 39.4048 20.8691ZM37.4869 20.3915C37.822 19.6922 37.9895 19.3425 38.3246 18.6432C38.5796 18.7629 38.7055 18.8263 38.9553 18.9585C38.922 19.458 38.897 19.7067 38.8314 20.1969C39.0656 19.8035 39.1821 19.6068 39.4163 19.2145C39.6338 19.3404 39.741 19.406 39.9532 19.5413C39.5318 20.1927 39.3205 20.5184 38.8991 21.1709C38.692 21.0388 38.5879 20.9753 38.3756 20.8535C38.4589 20.3478 38.4922 20.0928 38.5421 19.5777C38.3142 19.9992 38.1997 20.2104 37.9718 20.6329C37.7804 20.532 37.6825 20.4841 37.4869 20.3915ZM37.5379 17.8211C37.5483 17.9657 37.5525 18.0386 37.5608 18.1832C37.439 18.1353 37.3776 18.1114 37.2548 18.0656C37.1581 17.8898 37.1081 17.8013 37.004 17.6275C37.2184 17.7004 37.3256 17.7389 37.5379 17.8211ZM36.5222 17.9366C36.7668 18.0136 36.8885 18.0552 37.1289 18.1426C36.9302 18.6734 36.8313 18.9377 36.6325 19.4684C36.6086 19.5319 36.5992 19.5819 36.6034 19.6152C36.6076 19.6505 36.645 19.6818 36.7189 19.7098C36.7689 19.7286 36.8136 19.7327 36.849 19.7192C36.8823 19.7067 36.9145 19.662 36.9447 19.586C37.157 19.0605 37.2621 18.7982 37.4744 18.2727C37.7148 18.3674 37.8345 18.4174 38.0707 18.5225C37.8366 19.0366 37.72 19.2936 37.4859 19.8066C37.4151 19.9606 37.2985 20.0574 37.1372 20.0991C36.9759 20.1407 36.7959 20.1209 36.5888 20.0429C36.3849 19.9659 36.2392 19.8618 36.1486 19.7265C36.057 19.5902 36.0331 19.4403 36.0872 19.2759C36.26 18.741 36.3474 18.4725 36.5222 17.9366ZM34.852 17.8981C34.8822 17.7513 34.8967 17.6785 34.9269 17.5318C35.5024 17.6452 35.7875 17.716 36.3495 17.8856C36.3047 18.0282 36.2829 18.1 36.2381 18.2425C36.0831 18.1957 36.0061 18.1739 35.85 18.1312C35.6814 18.7327 35.5971 19.0334 35.4285 19.636C35.2141 19.5777 35.1069 19.5506 34.8905 19.5017C35.033 18.8929 35.1038 18.5891 35.2464 17.9813C35.0882 17.9459 35.0102 17.9293 34.852 17.8981ZM31.5781 19.1885C31.5521 18.4153 31.5385 18.0292 31.5115 17.256C31.9132 17.2425 32.1151 17.2425 32.5168 17.256C32.5761 17.641 32.6031 17.8346 32.652 18.2196C32.7395 17.8398 32.7852 17.6504 32.8831 17.2726C33.2848 17.2955 33.4846 17.3143 33.8842 17.3642C33.7843 18.1312 33.7354 18.5152 33.6355 19.2821C33.4232 19.2561 33.317 19.2447 33.1037 19.227C33.1557 18.6276 33.1817 18.3289 33.2338 17.7295C33.0412 18.3164 32.9517 18.612 32.7894 19.2041C32.6458 19.1958 32.573 19.1926 32.4293 19.1874C32.3253 18.5828 32.266 18.281 32.1328 17.6785C32.1255 18.28 32.1213 18.5797 32.114 19.1812C31.8986 19.1802 31.7914 19.1812 31.5781 19.1885ZM29.963 17.2674C30.0598 17.1218 30.1097 17.0489 30.2117 16.9053C30.4126 16.8824 30.5125 16.872 30.7133 16.8553C30.8267 16.9781 30.8829 17.0395 30.9922 17.1634C30.8476 17.1727 30.7747 17.179 30.6301 17.1915C30.5624 17.1238 30.527 17.0895 30.4573 17.0229C30.3949 17.103 30.3637 17.1436 30.3033 17.2248C30.167 17.2404 30.0993 17.2487 29.963 17.2674ZM29.7694 17.4121C30.3304 17.3278 30.6134 17.2987 31.1795 17.2674C31.1878 17.4163 31.192 17.4912 31.2003 17.64C30.8965 17.6566 30.7456 17.6691 30.4427 17.7014C30.4594 17.8554 30.4688 17.9314 30.4854 18.0854C30.7435 18.0583 30.8725 18.0469 31.1306 18.0313C31.14 18.1801 31.1452 18.255 31.1545 18.4038C30.9027 18.4194 30.7768 18.4299 30.527 18.4569C30.5458 18.6276 30.5551 18.7129 30.5749 18.8846C30.8632 18.8534 31.0068 18.8419 31.2961 18.8274C31.3044 18.9762 31.3086 19.0511 31.3169 19.1999C30.8153 19.227 30.5645 19.252 30.0671 19.3259C29.9484 18.5599 29.8891 18.178 29.7694 17.4121ZM29.2626 19.4726C29.0941 18.7171 29.0108 18.3393 28.8422 17.5838C29.092 17.5297 29.2179 17.5058 29.4697 17.4631C29.605 18.2248 29.6716 18.6068 29.8069 19.3685C29.5884 19.4049 29.4791 19.4258 29.2626 19.4726ZM27.6361 19.9367C27.3687 19.2093 27.2344 18.8461 26.967 18.1187C27.2084 18.0323 27.3302 17.9917 27.5747 17.9158C27.6632 18.1926 27.7069 18.3299 27.7953 18.6068C27.9285 18.5651 27.9962 18.5454 28.1304 18.5079C28.0492 18.229 28.0087 18.0906 27.9275 17.8117C28.1741 17.742 28.298 17.7097 28.5467 17.6514C28.7309 18.4038 28.8225 18.7795 29.0066 19.5319C28.7912 19.5829 28.683 19.611 28.4697 19.6713C28.3771 19.355 28.3313 19.1968 28.2386 18.8794C28.1075 18.9169 28.043 18.9356 27.9129 18.9762C28.0128 19.2905 28.0628 19.4476 28.1637 19.7619C27.9514 19.8264 27.8453 19.8618 27.6361 19.9367ZM25.8462 20.1407C25.6818 19.8295 25.5996 19.6734 25.4351 19.3623C25.3498 19.1999 25.3519 19.0397 25.4455 18.8836C25.534 18.7358 25.6943 18.6068 25.9232 18.5048C26.149 18.4038 26.3405 18.3612 26.4924 18.3716C26.6766 18.3841 26.7994 18.4725 26.8608 18.6307C26.892 18.7108 26.9077 18.7514 26.9389 18.8315C26.7214 18.9148 26.6131 18.9585 26.3988 19.0501C26.3676 18.9793 26.3519 18.9439 26.3207 18.8732C26.2801 18.7795 26.1979 18.7587 26.0772 18.8128C26.0158 18.8399 25.9711 18.8857 25.9586 18.9387C25.9503 18.9762 25.9575 19.0189 25.9742 19.0542C26.1376 19.4008 26.2198 19.5735 26.3832 19.9201C26.4081 19.9731 26.4394 20.0106 26.4758 20.0272C26.508 20.0429 26.5538 20.0366 26.61 20.0127C26.7203 19.9627 26.7568 19.8951 26.7183 19.8056C26.6777 19.714 26.6579 19.6682 26.6173 19.5766C26.5413 19.6099 26.5028 19.6266 26.4269 19.6599C26.3665 19.5298 26.3374 19.4643 26.277 19.3331C26.5684 19.202 26.7162 19.1406 27.0138 19.0272C27.1689 19.4247 27.2469 19.6235 27.402 20.021C27.2198 20.0907 27.1293 20.1272 26.9493 20.2031C26.9243 20.1448 26.9118 20.1167 26.8868 20.0585C26.841 20.2146 26.7349 20.329 26.5642 20.4092C26.4019 20.4851 26.2531 20.4955 26.122 20.4362C26.0179 20.3884 25.9242 20.2885 25.8462 20.1407ZM24.5048 21.5934C24.0459 20.968 23.8159 20.6548 23.357 20.0283C23.588 19.8597 23.7056 19.7785 23.9439 19.6214C24.3716 19.8878 24.5797 20.0283 24.9824 20.3186C24.7462 19.9273 24.6276 19.7307 24.3924 19.3394C24.6078 19.2093 24.716 19.1469 24.9367 19.0272C25.3123 19.7057 25.4997 20.046 25.8753 20.7245C25.661 20.841 25.5548 20.9024 25.3456 21.0304C24.9377 20.7172 24.7275 20.5663 24.2935 20.278C24.5579 20.6787 24.69 20.8785 24.9554 21.2792C24.7722 21.4009 24.6827 21.4633 24.5048 21.5934ZM22.6399 23.2793C22.0665 22.7569 21.7793 22.4957 21.2059 21.9722C21.387 21.7703 21.4796 21.6725 21.669 21.4821C21.8751 21.6871 21.9771 21.7901 22.1831 21.9962C22.2861 21.8921 22.3382 21.8411 22.4443 21.7402C22.2445 21.5289 22.1446 21.4238 21.9438 21.2125C22.1373 21.0284 22.2351 20.9378 22.4349 20.764C22.9428 21.351 23.1977 21.6444 23.7056 22.2313C23.5318 22.3822 23.4464 22.4603 23.2789 22.6205C23.051 22.3812 22.9376 22.2605 22.7097 22.0211C22.6077 22.119 22.5567 22.1689 22.4558 22.2709C22.6899 22.505 22.8064 22.6216 23.0396 22.8547C22.8783 23.0191 22.7971 23.1045 22.6399 23.2793ZM21.437 24.8579C20.7897 24.4323 20.466 24.219 19.8198 23.7923C19.9863 23.5332 20.0727 23.4062 20.2506 23.1606C20.7491 23.2501 20.9947 23.3043 21.4775 23.4281C21.1216 23.1409 20.9437 22.9973 20.5888 22.71C20.7532 22.4998 20.8365 22.3979 21.0092 22.198C21.5931 22.709 21.8855 22.964 22.4693 23.4749C22.3017 23.6695 22.2206 23.7694 22.0613 23.9755C21.567 23.8319 21.3152 23.7684 20.8032 23.6602C21.1893 23.9443 21.3818 24.0868 21.7679 24.3709C21.6316 24.5614 21.565 24.6592 21.437 24.8579ZM19.4597 23.6373C19.4972 23.7247 19.5159 23.8006 19.5159 23.8652C19.5159 23.9557 19.4878 24.0504 19.4295 24.1493C19.3952 24.2065 19.3411 24.2689 19.2714 24.3376C19.2027 24.4053 19.1569 24.4604 19.135 24.4989C19.1205 24.5249 19.108 24.5666 19.1049 24.6155C19.1049 24.6217 19.1059 24.6352 19.108 24.6529C19.1111 24.6717 19.1142 24.6925 19.1173 24.7133C19.0664 24.7716 19.0403 24.8007 18.9904 24.86C18.9717 24.8299 18.9581 24.8028 18.9488 24.782C18.9311 24.7424 18.9207 24.6998 18.9165 24.6592C18.9071 24.5707 18.9207 24.4781 18.9675 24.3938C19.0029 24.3303 19.058 24.2575 19.1319 24.1794C19.2048 24.1024 19.262 24.0442 19.288 24.0046C19.3151 23.9651 19.3286 23.9193 19.3328 23.8797C19.3369 23.8392 19.3317 23.8027 19.3171 23.7715C19.3723 23.7174 19.4014 23.6903 19.4597 23.6373ZM19.2807 24.6956C19.4191 24.4427 19.4909 24.3199 19.6387 24.0775C20.2964 24.4885 20.6252 24.6946 21.2819 25.1056C21.1539 25.3158 21.0915 25.422 20.9718 25.6416C20.2954 25.2628 19.9571 25.0734 19.2807 24.6956ZM20.3464 26.9497C19.5669 26.8112 19.1725 26.7551 18.3774 26.6697C18.4878 26.3794 18.545 26.2368 18.6667 25.9569C19.2027 26.1036 19.4691 26.1806 19.9998 26.3419C19.5367 26.0297 19.3078 25.8695 18.8541 25.5406C18.98 25.2732 19.0445 25.142 19.1808 24.885C19.7615 25.4418 20.0602 25.7092 20.6731 26.2212C20.5357 26.5053 20.4702 26.651 20.3464 26.9497Z" fill="#4D1A18"/>
</svg>
